<svg width="547" height="642" viewBox="0 0 547 642" fill="none" xmlns="http://www.w3.org/2000/svg">
<g opacity="0.23" filter="url(#filter0_f_14_55)">
<ellipse cx="276" cy="610.5" rx="238" ry="17.5" fill="black"/>
</g>
<g opacity="0.4" filter="url(#filter1_f_14_55)">
<ellipse cx="276" cy="611" rx="159" ry="7" fill="black"/>
</g>
<g opacity="0.23" filter="url(#filter2_f_14_55)">
<ellipse cx="226.5" cy="626.5" rx="27.5" ry="5.5" fill="black"/>
</g>
<g opacity="0.23" filter="url(#filter3_f_14_55)">
<ellipse cx="302.5" cy="626.5" rx="28.5" ry="5.5" fill="black"/>
</g>
<rect x="38" y="569" width="100" height="42" rx="21" fill="url(#paint0_linear_14_55)"/>
<rect width="100" height="42" rx="21" transform="matrix(-1 0 0 1 508 569)" fill="url(#paint1_linear_14_55)"/>
<path d="M86 125.5V26.6723C86 16.8561 97.8823 11.9556 104.802 18.9181L167 81.5L86 125.5Z" fill="url(#paint2_linear_14_55)"/>
<path d="M86 134.5V39.3756C86 33.0734 93.6763 29.9809 98.0451 34.5231L149 87.5L86 134.5Z" fill="url(#paint3_linear_14_55)"/>
<path d="M86 134.5V39.3756C86 33.0734 93.6763 29.9809 98.0451 34.5231L149 87.5L86 134.5Z" fill="url(#paint4_linear_14_55)"/>
<path d="M461 125.5V26.6723C461 16.8561 449.118 11.9556 442.198 18.9181L380 81.5L461 125.5Z" fill="url(#paint5_linear_14_55)"/>
<path d="M461 134.5V39.3756C461 33.0734 453.324 29.9809 448.955 34.5231L398 87.5L461 134.5Z" fill="url(#paint6_linear_14_55)"/>
<path d="M461 134.5V39.3756C461 33.0734 453.324 29.9809 448.955 34.5231L398 87.5L461 134.5Z" fill="url(#paint7_linear_14_55)"/>
<path d="M26.3183 233.332C34.0237 122.76 125.968 37 236.808 37H310.85C421.83 37 513.841 122.972 521.364 233.697L537.206 466.849C542.504 544.83 480.677 611 402.516 611H144.735C66.4816 611 4.62166 544.679 10.0617 466.615L26.3183 233.332Z" fill="url(#paint8_linear_14_55)"/>
<path d="M26.3183 233.332C34.0237 122.76 125.968 37 236.808 37H310.85C421.83 37 513.841 122.972 521.364 233.697L537.206 466.849C542.504 544.83 480.677 611 402.516 611H144.735C66.4816 611 4.62166 544.679 10.0617 466.615L26.3183 233.332Z" fill="url(#paint9_radial_14_55)"/>
<path d="M339.899 618.839C333.353 627.15 323.358 632 312.778 632C299.796 632 289.21 621.591 288.991 608.611L287.223 503.719C287.1 496.455 292.956 490.5 300.221 490.5H395.663C414.033 490.5 424.313 511.683 412.945 526.114L339.899 618.839Z" fill="url(#paint10_linear_14_55)"/>
<path d="M206.101 618.839C212.647 627.15 222.642 632 233.222 632C246.204 632 256.79 621.591 257.009 608.611L258.777 503.719C258.9 496.455 253.044 490.5 245.779 490.5H150.337C131.967 490.5 121.687 511.683 133.055 526.114L206.101 618.839Z" fill="url(#paint11_linear_14_55)"/>
<g filter="url(#filter4_i_14_55)">
<path d="M78.7343 238.427C85.2972 154.642 155.201 90 239.243 90H307.757C391.799 90 461.703 154.642 468.266 238.427L472.439 291.7C477.337 354.243 435.12 410.729 373.75 423.742L343.613 430.133C297.385 439.935 249.615 439.935 203.387 430.133L173.25 423.742C111.88 410.729 69.6625 354.243 74.5615 291.7L78.7343 238.427Z" fill="url(#paint12_linear_14_55)"/>
</g>
<g filter="url(#filter5_d_14_55)">
<path fill-rule="evenodd" clip-rule="evenodd" d="M193.5 234C177.76 234 165 246.76 165 262.5C165 278.24 177.76 291 193.5 291C209.24 291 222 278.24 222 262.5C222 246.76 209.24 234 193.5 234ZM157 262.5C157 242.342 173.342 226 193.5 226C213.658 226 230 242.342 230 262.5C230 282.658 213.658 299 193.5 299C173.342 299 157 282.658 157 262.5Z" fill="#95F9FF"/>
</g>
<g filter="url(#filter6_d_14_55)">
<path fill-rule="evenodd" clip-rule="evenodd" d="M352.5 234C336.76 234 324 246.76 324 262.5C324 278.24 336.76 291 352.5 291C368.24 291 381 278.24 381 262.5C381 246.76 368.24 234 352.5 234ZM316 262.5C316 242.342 332.342 226 352.5 226C372.658 226 389 242.342 389 262.5C389 282.658 372.658 299 352.5 299C332.342 299 316 282.658 316 262.5Z" fill="#95F9FF"/>
</g>
<g filter="url(#filter7_d_14_55)">
<path d="M247 313C247 321.008 253.492 327.5 261.5 327.5C266.039 327.5 270.091 325.414 272.75 322.149C275.409 325.414 279.461 327.5 284 327.5C292.008 327.5 298.5 321.008 298.5 313" stroke="#99F9FF" stroke-width="6" stroke-linecap="round"/>
</g>
<g filter="url(#filter8_d_14_55)">
<path d="M187 325L164 325" stroke="#99F9FF" stroke-width="6" stroke-linecap="round"/>
</g>
<g filter="url(#filter9_d_14_55)">
<path d="M186.557 339L174 342.365" stroke="#99F9FF" stroke-width="6" stroke-linecap="round"/>
</g>
<g filter="url(#filter10_d_14_55)">
<path d="M353 325L376 325" stroke="#99F9FF" stroke-width="6" stroke-linecap="round"/>
</g>
<g filter="url(#filter11_d_14_55)">
<path d="M353.443 339L366 342.365" stroke="#99F9FF" stroke-width="6" stroke-linecap="round"/>
</g>
<defs>
<filter id="filter0_f_14_55" x="25" y="580" width="502" height="61" filterUnits="userSpaceOnUse" color-interpolation-filters="sRGB">
<feFlood flood-opacity="0" result="BackgroundImageFix"/>
<feBlend mode="normal" in="SourceGraphic" in2="BackgroundImageFix" result="shape"/>
<feGaussianBlur stdDeviation="6.5" result="effect1_foregroundBlur_14_55"/>
</filter>
<filter id="filter1_f_14_55" x="103" y="590" width="346" height="42" filterUnits="userSpaceOnUse" color-interpolation-filters="sRGB">
<feFlood flood-opacity="0" result="BackgroundImageFix"/>
<feBlend mode="normal" in="SourceGraphic" in2="BackgroundImageFix" result="shape"/>
<feGaussianBlur stdDeviation="7" result="effect1_foregroundBlur_14_55"/>
</filter>
<filter id="filter2_f_14_55" x="189" y="611" width="75" height="31" filterUnits="userSpaceOnUse" color-interpolation-filters="sRGB">
<feFlood flood-opacity="0" result="BackgroundImageFix"/>
<feBlend mode="normal" in="SourceGraphic" in2="BackgroundImageFix" result="shape"/>
<feGaussianBlur stdDeviation="5" result="effect1_foregroundBlur_14_55"/>
</filter>
<filter id="filter3_f_14_55" x="264" y="611" width="77" height="31" filterUnits="userSpaceOnUse" color-interpolation-filters="sRGB">
<feFlood flood-opacity="0" result="BackgroundImageFix"/>
<feBlend mode="normal" in="SourceGraphic" in2="BackgroundImageFix" result="shape"/>
<feGaussianBlur stdDeviation="5" result="effect1_foregroundBlur_14_55"/>
</filter>
<filter id="filter4_i_14_55" x="74.1754" y="90" width="398.649" height="355.485" filterUnits="userSpaceOnUse" color-interpolation-filters="sRGB">
<feFlood flood-opacity="0" result="BackgroundImageFix"/>
<feBlend mode="normal" in="SourceGraphic" in2="BackgroundImageFix" result="shape"/>
<feColorMatrix in="SourceAlpha" type="matrix" values="0 0 0 0 0 0 0 0 0 0 0 0 0 0 0 0 0 0 127 0" result="hardAlpha"/>
<feOffset dy="8"/>
<feGaussianBlur stdDeviation="5.5"/>
<feComposite in2="hardAlpha" operator="arithmetic" k2="-1" k3="1"/>
<feColorMatrix type="matrix" values="0 0 0 0 0 0 0 0 0 0 0 0 0 0 0 0 0 0 1 0"/>
<feBlend mode="normal" in2="shape" result="effect1_innerShadow_14_55"/>
</filter>
<filter id="filter5_d_14_55" x="124" y="193" width="139" height="139" filterUnits="userSpaceOnUse" color-interpolation-filters="sRGB">
<feFlood flood-opacity="0" result="BackgroundImageFix"/>
<feColorMatrix in="SourceAlpha" type="matrix" values="0 0 0 0 0 0 0 0 0 0 0 0 0 0 0 0 0 0 127 0" result="hardAlpha"/>
<feOffset/>
<feGaussianBlur stdDeviation="16.5"/>
<feComposite in2="hardAlpha" operator="out"/>
<feColorMatrix type="matrix" values="0 0 0 0 0 0 0 0 0 0.88 0 0 0 0 1 0 0 0 0.45 0"/>
<feBlend mode="normal" in2="BackgroundImageFix" result="effect1_dropShadow_14_55"/>
<feBlend mode="normal" in="SourceGraphic" in2="effect1_dropShadow_14_55" result="shape"/>
</filter>
<filter id="filter6_d_14_55" x="283" y="193" width="139" height="139" filterUnits="userSpaceOnUse" color-interpolation-filters="sRGB">
<feFlood flood-opacity="0" result="BackgroundImageFix"/>
<feColorMatrix in="SourceAlpha" type="matrix" values="0 0 0 0 0 0 0 0 0 0 0 0 0 0 0 0 0 0 127 0" result="hardAlpha"/>
<feOffset/>
<feGaussianBlur stdDeviation="16.5"/>
<feComposite in2="hardAlpha" operator="out"/>
<feColorMatrix type="matrix" values="0 0 0 0 0 0 0 0 0 0.88 0 0 0 0 1 0 0 0 0.45 0"/>
<feBlend mode="normal" in2="BackgroundImageFix" result="effect1_dropShadow_14_55"/>
<feBlend mode="normal" in="SourceGraphic" in2="effect1_dropShadow_14_55" result="shape"/>
</filter>
<filter id="filter7_d_14_55" x="238.5" y="304.5" width="68.5" height="31.5" filterUnits="userSpaceOnUse" color-interpolation-filters="sRGB">
<feFlood flood-opacity="0" result="BackgroundImageFix"/>
<feColorMatrix in="SourceAlpha" type="matrix" values="0 0 0 0 0 0 0 0 0 0 0 0 0 0 0 0 0 0 127 0" result="hardAlpha"/>
<feOffset/>
<feGaussianBlur stdDeviation="2.75"/>
<feComposite in2="hardAlpha" operator="out"/>
<feColorMatrix type="matrix" values="0 0 0 0 0 0 0 0 0 0.88 0 0 0 0 1 0 0 0 0.25 0"/>
<feBlend mode="normal" in2="BackgroundImageFix" result="effect1_dropShadow_14_55"/>
<feBlend mode="normal" in="SourceGraphic" in2="effect1_dropShadow_14_55" result="shape"/>
</filter>
<filter id="filter8_d_14_55" x="155.5" y="316.5" width="40" height="17" filterUnits="userSpaceOnUse" color-interpolation-filters="sRGB">
<feFlood flood-opacity="0" result="BackgroundImageFix"/>
<feColorMatrix in="SourceAlpha" type="matrix" values="0 0 0 0 0 0 0 0 0 0 0 0 0 0 0 0 0 0 127 0" result="hardAlpha"/>
<feOffset/>
<feGaussianBlur stdDeviation="2.75"/>
<feComposite in2="hardAlpha" operator="out"/>
<feColorMatrix type="matrix" values="0 0 0 0 0 0 0 0 0 0.88 0 0 0 0 1 0 0 0 0.25 0"/>
<feBlend mode="normal" in2="BackgroundImageFix" result="effect1_dropShadow_14_55"/>
<feBlend mode="normal" in="SourceGraphic" in2="effect1_dropShadow_14_55" result="shape"/>
</filter>
<filter id="filter9_d_14_55" x="165.499" y="330.499" width="29.5585" height="20.3662" filterUnits="userSpaceOnUse" color-interpolation-filters="sRGB">
<feFlood flood-opacity="0" result="BackgroundImageFix"/>
<feColorMatrix in="SourceAlpha" type="matrix" values="0 0 0 0 0 0 0 0 0 0 0 0 0 0 0 0 0 0 127 0" result="hardAlpha"/>
<feOffset/>
<feGaussianBlur stdDeviation="2.75"/>
<feComposite in2="hardAlpha" operator="out"/>
<feColorMatrix type="matrix" values="0 0 0 0 0 0 0 0 0 0.88 0 0 0 0 1 0 0 0 0.25 0"/>
<feBlend mode="normal" in2="BackgroundImageFix" result="effect1_dropShadow_14_55"/>
<feBlend mode="normal" in="SourceGraphic" in2="effect1_dropShadow_14_55" result="shape"/>
</filter>
<filter id="filter10_d_14_55" x="344.5" y="316.5" width="40" height="17" filterUnits="userSpaceOnUse" color-interpolation-filters="sRGB">
<feFlood flood-opacity="0" result="BackgroundImageFix"/>
<feColorMatrix in="SourceAlpha" type="matrix" values="0 0 0 0 0 0 0 0 0 0 0 0 0 0 0 0 0 0 127 0" result="hardAlpha"/>
<feOffset/>
<feGaussianBlur stdDeviation="2.75"/>
<feComposite in2="hardAlpha" operator="out"/>
<feColorMatrix type="matrix" values="0 0 0 0 0 0 0 0 0 0.88 0 0 0 0 1 0 0 0 0.25 0"/>
<feBlend mode="normal" in2="BackgroundImageFix" result="effect1_dropShadow_14_55"/>
<feBlend mode="normal" in="SourceGraphic" in2="effect1_dropShadow_14_55" result="shape"/>
</filter>
<filter id="filter11_d_14_55" x="344.942" y="330.499" width="29.5585" height="20.3662" filterUnits="userSpaceOnUse" color-interpolation-filters="sRGB">
<feFlood flood-opacity="0" result="BackgroundImageFix"/>
<feColorMatrix in="SourceAlpha" type="matrix" values="0 0 0 0 0 0 0 0 0 0 0 0 0 0 0 0 0 0 127 0" result="hardAlpha"/>
<feOffset/>
<feGaussianBlur stdDeviation="2.75"/>
<feComposite in2="hardAlpha" operator="out"/>
<feColorMatrix type="matrix" values="0 0 0 0 0 0 0 0 0 0.88 0 0 0 0 1 0 0 0 0.25 0"/>
<feBlend mode="normal" in2="BackgroundImageFix" result="effect1_dropShadow_14_55"/>
<feBlend mode="normal" in="SourceGraphic" in2="effect1_dropShadow_14_55" result="shape"/>
</filter>
<linearGradient id="paint0_linear_14_55" x1="43" y1="611" x2="78" y2="581" gradientUnits="userSpaceOnUse">
<stop stop-color="#F0F0F0"/>
<stop offset="0.212398" stop-color="#E9E9E9"/>
<stop offset="1" stop-color="#B9B9B9"/>
</linearGradient>
<linearGradient id="paint1_linear_14_55" x1="5" y1="42" x2="40" y2="12" gradientUnits="userSpaceOnUse">
<stop stop-color="#F0F0F0"/>
<stop offset="0.212398" stop-color="#E9E9E9"/>
<stop offset="1" stop-color="#D1D1D1"/>
</linearGradient>
<linearGradient id="paint2_linear_14_55" x1="86" y1="16" x2="131.582" y2="84.4476" gradientUnits="userSpaceOnUse">
<stop stop-color="#EDEDED"/>
<stop offset="0.196189" stop-color="#EEEEEE"/>
<stop offset="0.515916" stop-color="#E9E9E9"/>
<stop offset="1" stop-color="#C8C8C8"/>
</linearGradient>
<linearGradient id="paint3_linear_14_55" x1="130.522" y1="25.4396" x2="75.7706" y2="79.4107" gradientUnits="userSpaceOnUse">
<stop stop-color="#CECECE"/>
<stop offset="1" stop-color="#DBDBDB" stop-opacity="0.56"/>
</linearGradient>
<linearGradient id="paint4_linear_14_55" x1="112.5" y1="22" x2="112.5" y2="93.8366" gradientUnits="userSpaceOnUse">
<stop stop-color="#494949"/>
<stop offset="1" stop-color="#161616"/>
</linearGradient>
<linearGradient id="paint5_linear_14_55" x1="461" y1="16" x2="415.418" y2="84.4476" gradientUnits="userSpaceOnUse">
<stop stop-color="#EDEDED"/>
<stop offset="0.196189" stop-color="#EEEEEE"/>
<stop offset="0.515916" stop-color="#E9E9E9"/>
<stop offset="1" stop-color="#C8C8C8"/>
</linearGradient>
<linearGradient id="paint6_linear_14_55" x1="416.478" y1="25.4396" x2="471.229" y2="79.4107" gradientUnits="userSpaceOnUse">
<stop stop-color="#CECECE"/>
<stop offset="1" stop-color="#DBDBDB" stop-opacity="0.56"/>
</linearGradient>
<linearGradient id="paint7_linear_14_55" x1="434.5" y1="22" x2="434.5" y2="93.8366" gradientUnits="userSpaceOnUse">
<stop stop-color="#494949"/>
<stop offset="1" stop-color="#161616"/>
</linearGradient>
<linearGradient id="paint8_linear_14_55" x1="83" y1="60.8752" x2="98.4694" y2="568.152" gradientUnits="userSpaceOnUse">
<stop stop-color="#F0F0F0"/>
<stop offset="1" stop-color="#E6E6E6"/>
</linearGradient>
<radialGradient id="paint9_radial_14_55" cx="0" cy="0" r="1" gradientUnits="userSpaceOnUse" gradientTransform="translate(273.5 611) rotate(90) scale(52.5 173.172)">
<stop stop-opacity="0.34"/>
<stop offset="1" stop-opacity="0"/>
</radialGradient>
<linearGradient id="paint10_linear_14_55" x1="325.172" y1="630.003" x2="322.214" y2="534.592" gradientUnits="userSpaceOnUse">
<stop stop-color="#EAEAEA"/>
<stop offset="0.574043" stop-color="#EAEAEA"/>
<stop offset="1" stop-color="#E7E7E7"/>
</linearGradient>
<linearGradient id="paint11_linear_14_55" x1="220.828" y1="630.003" x2="223.786" y2="534.592" gradientUnits="userSpaceOnUse">
<stop stop-color="#EAEAEA"/>
<stop offset="0.574043" stop-color="#EAEAEA"/>
<stop offset="1" stop-color="#E7E7E7"/>
</linearGradient>
<linearGradient id="paint12_linear_14_55" x1="273.5" y1="90" x2="273.5" y2="401" gradientUnits="userSpaceOnUse">
<stop stop-color="#494949"/>
<stop offset="1" stop-color="#161616"/>
</linearGradient>
</defs>
</svg>
